<svg width="200" height="108" viewBox="0 0 200 108" fill="none" xmlns="http://www.w3.org/2000/svg">
<path d="M24.649 55.0827H12.694C12.4551 55.0826 12.2186 55.1304 11.9982 55.2232C11.7778 55.316 11.5778 55.452 11.4099 55.6232C11.242 55.7945 11.1094 55.9976 11.0199 56.2209C10.9304 56.4442 10.8858 56.6831 10.8885 56.9239V60.5642C10.8885 60.8032 10.9352 61.0399 11.026 61.2608C11.1167 61.4816 11.2497 61.6822 11.4174 61.8513C11.585 62.0203 11.784 62.1544 12.0031 62.2458C12.2221 62.3373 12.4569 62.3844 12.694 62.3844H21.059C21.529 62.3746 21.9766 62.1805 22.3068 61.8432L25.9177 58.2029C26.1778 57.951 26.3566 57.626 26.4312 57.2703C26.5057 56.9145 26.4724 56.5444 26.3356 56.208C26.1988 55.8715 25.9648 55.5843 25.6641 55.3837C25.3633 55.183 25.0097 55.0781 24.649 55.0827V55.0827Z" fill="#0052CC"/>
<path d="M34.5545 44.1055H1.71483C1.26003 44.1055 0.823855 44.2876 0.502262 44.6118C0.180669 44.936 0 45.3758 0 45.8343L0 71.5203C0.00183594 72.0006 0.191908 72.4607 0.528791 72.8003C0.865674 73.1399 1.32206 73.3316 1.79848 73.3334H5.57668C6.05431 73.3334 6.51248 73.1426 6.85087 72.8028C7.18926 72.463 7.38029 72.0018 7.38213 71.5203V53.1922C7.38122 52.9535 7.42706 52.717 7.51703 52.4962C7.607 52.2754 7.73933 52.0747 7.90643 51.9056C8.07352 51.7365 8.2721 51.6023 8.49075 51.5107C8.70941 51.4192 8.94385 51.3721 9.18062 51.3721H34.5545C34.791 51.373 35.0252 51.3267 35.2439 51.2359C35.4625 51.1451 35.6611 51.0116 35.8283 50.8431C35.9955 50.6745 36.1279 50.4743 36.218 50.2539C36.308 50.0335 36.3539 49.7973 36.353 49.5589V45.9186C36.3539 45.6802 36.308 45.4441 36.218 45.2237C36.1279 45.0033 35.9955 44.803 35.8283 44.6345C35.6611 44.4659 35.4625 44.3324 35.2439 44.2416C35.0252 44.1508 34.791 44.1046 34.5545 44.1055V44.1055Z" fill="#0052CC"/>
<path d="M74.6229 44.1055H41.7065C41.2517 44.1055 40.8156 44.2876 40.494 44.6118C40.1724 44.936 39.9917 45.3758 39.9917 45.8343V71.6046C39.9917 72.0631 40.1724 72.5028 40.494 72.827C40.8156 73.1513 41.2517 73.3334 41.7065 73.3334H45.6311C46.0859 73.3334 46.5221 73.1513 46.8437 72.827C47.1653 72.5028 47.346 72.0631 47.346 71.6046V53.1079C47.3478 52.6481 47.5298 52.2076 47.8523 51.8825C48.1748 51.5574 48.6117 51.3739 49.0678 51.372H57.628C57.9672 51.3738 58.2983 51.4766 58.5798 51.6675C58.8613 51.8583 59.0805 52.1288 59.2101 52.4448C59.3397 52.7609 59.3738 53.1085 59.3081 53.444C59.2424 53.7795 59.0799 54.088 58.8409 54.3307L58.5969 54.5766C58.2739 54.8989 57.8384 55.0805 57.384 55.0826H52.595C52.1414 55.0845 51.707 55.2675 51.3869 55.5915C51.0669 55.9155 50.8871 56.3541 50.8871 56.8114V60.6204C50.8871 61.0796 51.0676 61.52 51.389 61.8453C51.7104 62.1707 52.1465 62.3544 52.602 62.3562H59.9493C60.4071 62.3541 60.8456 62.1697 61.1692 61.8432L75.808 47.05C76.044 46.8096 76.2049 46.5047 76.2707 46.173C76.3365 45.8413 76.3043 45.4974 76.1782 45.184C76.052 44.8705 75.8374 44.6013 75.561 44.4096C75.2845 44.2179 74.9584 44.1121 74.6229 44.1055V44.1055Z" fill="#0052CC"/>
<path d="M114.615 44.1055H81.6984C81.2429 44.1055 80.806 44.2874 80.4833 44.6114C80.1606 44.9354 79.9784 45.3752 79.9766 45.8343V49.6433C79.9784 50.1024 80.1606 50.5421 80.4833 50.8662C80.806 51.1902 81.2429 51.3721 81.6984 51.3721H110.837C111.291 51.3715 111.727 51.1896 112.049 50.8661L115.828 47.0852C116.074 46.8437 116.243 46.5334 116.313 46.1942C116.382 45.8551 116.35 45.5027 116.22 45.1823C116.089 44.8619 115.867 44.5881 115.581 44.3962C115.295 44.2043 114.958 44.1031 114.615 44.1055V44.1055Z" fill="#0052CC"/>
<path d="M118.226 66.0601H114.44C113.493 66.0601 112.726 66.8341 112.726 67.7889V71.6049C112.726 72.5596 113.493 73.3337 114.44 73.3337H118.226C119.173 73.3337 119.94 72.5596 119.94 71.6049V67.7889C119.94 66.8341 119.173 66.0601 118.226 66.0601Z" fill="#0052CC"/>
<path d="M157.025 50.7675L153.247 54.5765C152.926 54.9013 152.746 55.3409 152.745 55.7993V57.0643C152.745 57.5228 152.565 57.9625 152.243 58.2867C151.921 58.6109 151.485 58.7931 151.03 58.7931H149.776C149.321 58.7936 148.885 58.9755 148.563 59.299L144.785 63.108C144.545 63.3498 144.381 63.6579 144.315 63.9934C144.249 64.3288 144.283 64.6765 144.413 64.9925C144.542 65.3085 144.762 65.5786 145.044 65.7685C145.327 65.9585 145.658 66.0598 145.998 66.0596H151.03C151.486 66.0615 151.922 66.2452 152.243 66.5705C152.565 66.8958 152.745 67.3363 152.745 67.7955V71.6044C152.745 72.0629 152.926 72.5027 153.248 72.8269C153.569 73.1511 154.005 73.3332 154.46 73.3332H158.238C158.694 73.3332 159.131 73.1513 159.453 72.8273C159.776 72.5033 159.958 72.0636 159.96 71.6044V52.0044C159.961 51.6612 159.861 51.3254 159.673 51.0395C159.485 50.7536 159.217 50.5303 158.902 50.398C158.588 50.2656 158.242 50.2301 157.908 50.2959C157.574 50.3616 157.267 50.5257 157.025 50.7675V50.7675Z" fill="#0052CC"/>
<path d="M155.959 44.1052H149.922C149.467 44.1058 149.031 44.2877 148.709 44.6112L123.154 70.3815C122.914 70.6233 122.751 70.9314 122.684 71.2669C122.618 71.6023 122.652 71.9501 122.782 72.266C122.912 72.582 123.132 72.8521 123.414 73.042C123.696 73.232 124.028 73.3333 124.367 73.3332H130.404C130.858 73.3326 131.294 73.1507 131.617 72.8272L157.172 47.085C157.422 46.8448 157.594 46.5343 157.666 46.194C157.737 45.8536 157.706 45.4994 157.575 45.1774C157.444 44.8555 157.219 44.581 156.931 44.3897C156.643 44.1984 156.304 44.0992 155.959 44.1052V44.1052Z" fill="#0052CC"/>
<path d="M169.12 44.1055H165.335C164.388 44.1055 163.62 44.8795 163.62 45.8343V71.6046C163.62 72.5594 164.388 73.3334 165.335 73.3334H169.12C170.067 73.3334 170.835 72.5594 170.835 71.6046V45.8343C170.835 44.8795 170.067 44.1055 169.12 44.1055Z" fill="#0052CC"/>
<path d="M100.178 55.0684H96.3928C95.4457 55.0684 94.678 55.8424 94.678 56.7972V71.6044C94.678 72.5592 95.4457 73.3332 96.3928 73.3332H100.178C101.125 73.3332 101.893 72.5592 101.893 71.6044V56.7972C101.893 55.8424 101.125 55.0684 100.178 55.0684Z" fill="#0052CC"/>
<path d="M192.744 0C190.816 0 188.967 0.772247 187.603 2.14686C186.24 3.52146 185.474 5.38583 185.474 7.32982C185.473 8.373 185.697 9.40392 186.129 10.3517L172.717 21.9473C171.152 20.7706 169.253 20.1347 167.301 20.1342H167.175L166.011 15.3132C167.263 14.5067 168.19 13.2784 168.628 11.847C169.066 10.4156 168.986 8.87402 168.401 7.49675C167.817 6.11949 166.767 4.99593 165.438 4.32614C164.109 3.65635 162.588 3.48379 161.144 3.8392C159.701 4.19461 158.43 5.05491 157.556 6.26693C156.683 7.47894 156.265 8.964 156.377 10.4577C156.488 11.9513 157.122 13.3567 158.165 14.4235C159.208 15.4902 160.593 16.1492 162.072 16.283L163.23 21.0829C161.814 21.7963 160.608 22.871 159.732 24.2002C158.857 25.5293 158.342 27.0665 158.238 28.6587L150.243 29.9026C149.503 28.3009 148.214 27.0223 146.614 26.3017C145.013 25.5812 143.209 25.4671 141.532 25.9804C139.855 26.4937 138.418 27.6 137.485 29.0959C136.552 30.5918 136.186 32.3769 136.454 34.1231C136.722 35.8693 137.606 37.4592 138.944 38.6008C140.282 39.7424 141.983 40.359 143.736 40.3371C145.489 40.3153 147.174 39.6565 148.484 38.4819C149.793 37.3073 150.638 35.6958 150.863 33.9435L158.852 32.6996C159.339 33.9487 160.093 35.0742 161.061 35.9961C162.028 36.9181 163.185 37.6138 164.45 38.0338C165.714 38.4538 167.055 38.5878 168.377 38.4262C169.698 38.2646 170.968 37.8114 172.096 37.0989L179.067 44.1968C178.225 45.7397 177.962 47.5373 178.329 49.2595C178.695 50.9817 179.665 52.5128 181.062 53.5716C182.458 54.6305 184.186 55.146 185.929 55.0235C187.672 54.901 189.312 54.1487 190.549 52.9048C191.786 51.6609 192.536 50.0088 192.662 48.252C192.788 46.4953 192.28 44.7517 191.234 43.3417C190.187 41.9316 188.67 40.9496 186.963 40.5761C185.256 40.2026 183.472 40.4626 181.939 41.3084L174.968 34.2175C175.82 32.8611 176.301 31.3024 176.365 29.6986C176.429 28.0948 176.072 26.5023 175.331 25.0816L188.771 13.4579C189.718 14.0801 190.796 14.4708 191.919 14.5991C193.042 14.7273 194.18 14.5895 195.241 14.1966C196.302 13.8038 197.257 13.1666 198.031 12.336C198.805 11.5053 199.376 10.5041 199.698 9.41184C200.021 8.31963 200.086 7.16661 199.889 6.04453C199.691 4.92245 199.237 3.86229 198.562 2.94839C197.886 2.03449 197.009 1.29208 195.999 0.780227C194.989 0.268377 193.875 0.00121574 192.744 0V0Z" fill="#0052CC"/>
<path d="M52.404 100.413C52.148 100.413 51.8547 100.387 51.524 100.333C51.1933 100.291 50.8733 100.184 50.564 100.013C50.2653 99.8428 50.0147 99.5868 49.812 99.2455C49.62 98.8935 49.524 98.4135 49.524 97.8055V91.1975C49.524 90.6748 49.604 90.2375 49.764 89.8855C49.924 89.5335 50.1373 89.2562 50.404 89.0535C50.6707 88.8508 50.964 88.7068 51.284 88.6215C51.604 88.5362 51.9187 88.4935 52.228 88.4935C53.028 88.4935 53.732 88.5042 54.34 88.5255C54.9587 88.5468 55.5133 88.5735 56.004 88.6055C56.4947 88.6268 56.9427 88.6588 57.348 88.7015V90.6855H52.932C52.6013 90.6855 52.3453 90.7655 52.164 90.9255C51.9827 91.0855 51.892 91.3308 51.892 91.6615V93.3735L56.58 93.5015V95.3735L51.892 95.5015V97.1335C51.892 97.4108 51.9347 97.6295 52.02 97.7895C52.116 97.9388 52.2387 98.0455 52.388 98.1095C52.548 98.1628 52.7133 98.1895 52.884 98.1895H57.348V100.173C56.8787 100.227 56.356 100.269 55.78 100.301C55.2147 100.333 54.6387 100.36 54.052 100.381C53.476 100.403 52.9267 100.413 52.404 100.413ZM59.0709 100.333V88.4935H61.4389V93.3895H63.0069L65.4389 88.4935H67.9669L64.8949 94.4455L68.0629 100.333H65.5349L63.0069 95.5335H61.4389V100.333H59.0709ZM72.1994 100.333V96.7495L68.6314 88.4935H71.0954L73.4314 94.3335L75.7514 88.4935H78.1194L74.5674 96.7495V100.333H72.1994ZM83.1799 100.429C82.4865 100.429 81.8732 100.349 81.3399 100.189C80.8172 100.029 80.3692 99.7362 79.9959 99.3095C79.6332 98.8828 79.3559 98.2748 79.1639 97.4855C78.9825 96.6855 78.8919 95.6508 78.8919 94.3815C78.8919 93.1548 78.9879 92.1522 79.1799 91.3735C79.3825 90.5842 79.6705 89.9762 80.0439 89.5495C80.4172 89.1122 80.8705 88.8082 81.4039 88.6375C81.9372 88.4668 82.5399 88.3815 83.2119 88.3815C83.7452 88.3815 84.2412 88.4135 84.6999 88.4775C85.1692 88.5308 85.5905 88.6002 85.9639 88.6855C86.3372 88.7602 86.6519 88.8455 86.9079 88.9415V90.7815C86.7159 90.7388 86.4545 90.6962 86.1239 90.6535C85.8039 90.6108 85.4359 90.5788 85.0199 90.5575C84.6039 90.5255 84.1665 90.5095 83.7079 90.5095C83.2599 90.5095 82.8759 90.5628 82.5559 90.6695C82.2465 90.7655 81.9959 90.9522 81.8039 91.2295C81.6225 91.4962 81.4839 91.8855 81.3879 92.3975C81.3025 92.9095 81.2599 93.5762 81.2599 94.3975C81.2599 95.1868 81.2972 95.8375 81.3719 96.3495C81.4572 96.8615 81.5905 97.2615 81.7719 97.5495C81.9532 97.8268 82.1985 98.0242 82.5079 98.1415C82.8279 98.2482 83.2279 98.3015 83.7079 98.3015C84.5185 98.3015 85.1745 98.2855 85.6759 98.2535C86.1879 98.2215 86.5985 98.1842 86.9079 98.1415V99.9655C86.6199 100.061 86.2892 100.147 85.9159 100.221C85.5425 100.285 85.1319 100.333 84.6839 100.365C84.2359 100.408 83.7345 100.429 83.1799 100.429ZM92.6959 100.333V88.4935H97.6879C98.0719 88.4935 98.4612 88.5415 98.8559 88.6375C99.2612 88.7228 99.6292 88.9042 99.9599 89.1815C100.301 89.4482 100.573 89.8535 100.776 90.3975C100.989 90.9415 101.096 91.6615 101.096 92.5575C101.096 93.4535 100.989 94.1788 100.776 94.7335C100.573 95.2882 100.307 95.7095 99.9759 95.9975C99.6452 96.2855 99.2879 96.4775 98.9039 96.5735C98.5199 96.6695 98.1465 96.7175 97.7839 96.7175C97.5919 96.7175 97.3679 96.7122 97.1119 96.7015C96.8559 96.6802 96.5945 96.6535 96.3279 96.6215C96.0719 96.5895 95.8319 96.5628 95.6079 96.5415C95.3839 96.5095 95.2025 96.4828 95.0639 96.4615V100.333H92.6959ZM95.0639 94.5895H97.4159C97.6932 94.5895 97.9279 94.5255 98.1199 94.3975C98.3225 94.2588 98.4719 94.0455 98.5679 93.7575C98.6639 93.4588 98.7119 93.0642 98.7119 92.5735C98.7119 92.0935 98.6585 91.7148 98.5519 91.4375C98.4559 91.1495 98.3119 90.9415 98.1199 90.8135C97.9385 90.6855 97.7199 90.6215 97.4639 90.6215H95.0639V94.5895ZM107.209 100.429C106.399 100.429 105.689 100.355 105.081 100.205C104.473 100.045 103.961 99.7575 103.545 99.3415C103.14 98.9148 102.836 98.3068 102.633 97.5175C102.431 96.7282 102.329 95.6988 102.329 94.4295C102.329 93.1602 102.431 92.1308 102.633 91.3415C102.847 90.5415 103.156 89.9282 103.561 89.5015C103.967 89.0748 104.473 88.7815 105.081 88.6215C105.689 88.4615 106.399 88.3815 107.209 88.3815C108.02 88.3815 108.729 88.4615 109.337 88.6215C109.945 88.7815 110.452 89.0748 110.857 89.5015C111.263 89.9282 111.567 90.5415 111.769 91.3415C111.972 92.1308 112.073 93.1602 112.073 94.4295C112.073 95.6988 111.972 96.7282 111.769 97.5175C111.567 98.3068 111.263 98.9148 110.857 99.3415C110.452 99.7575 109.945 100.045 109.337 100.205C108.729 100.355 108.02 100.429 107.209 100.429ZM107.209 98.3015C107.689 98.3015 108.089 98.2482 108.409 98.1415C108.729 98.0348 108.98 97.8482 109.161 97.5815C109.353 97.3042 109.492 96.9148 109.577 96.4135C109.663 95.9015 109.705 95.2402 109.705 94.4295C109.705 93.5762 109.663 92.8935 109.577 92.3815C109.492 91.8695 109.353 91.4802 109.161 91.2135C108.98 90.9362 108.729 90.7495 108.409 90.6535C108.089 90.5575 107.689 90.5095 107.209 90.5095C106.751 90.5095 106.361 90.5575 106.041 90.6535C105.721 90.7495 105.46 90.9362 105.257 91.2135C105.065 91.4802 104.921 91.8695 104.825 92.3815C104.74 92.8935 104.697 93.5762 104.697 94.4295C104.697 95.2402 104.735 95.9015 104.809 96.4135C104.895 96.9148 105.033 97.3042 105.225 97.5815C105.417 97.8482 105.673 98.0348 105.993 98.1415C106.324 98.2482 106.729 98.3015 107.209 98.3015ZM113.821 100.333V88.4935H118.717C119.186 88.4935 119.624 88.5522 120.029 88.6695C120.434 88.7762 120.792 88.9682 121.101 89.2455C121.41 89.5228 121.65 89.9068 121.821 90.3975C122.002 90.8882 122.093 91.5175 122.093 92.2855C122.093 92.8295 122.04 93.2935 121.933 93.6775C121.826 94.0615 121.682 94.3762 121.501 94.6215C121.33 94.8668 121.133 95.0642 120.909 95.2135C120.685 95.3628 120.456 95.4855 120.221 95.5815L122.429 100.333H120.013L118.109 95.9495C117.981 95.9495 117.832 95.9495 117.661 95.9495C117.501 95.9388 117.336 95.9335 117.165 95.9335C116.994 95.9335 116.824 95.9335 116.653 95.9335C116.482 95.9335 116.328 95.9282 116.189 95.9175V100.333H113.821ZM116.189 94.0455H118.301C118.514 94.0455 118.706 94.0188 118.877 93.9655C119.048 93.9122 119.197 93.8215 119.325 93.6935C119.453 93.5548 119.549 93.3735 119.613 93.1495C119.688 92.9255 119.725 92.6375 119.725 92.2855C119.725 91.9548 119.688 91.6828 119.613 91.4695C119.549 91.2455 119.453 91.0748 119.325 90.9575C119.197 90.8295 119.048 90.7442 118.877 90.7015C118.706 90.6482 118.514 90.6215 118.301 90.6215H116.189V94.0455ZM126.332 100.333V90.6215H123.084V88.4935H131.964V90.6215H128.7V100.333H126.332ZM131.694 100.333L135.406 88.4935H138.398L142.11 100.333H139.646L138.894 97.8535H134.862L134.126 100.333H131.694ZM135.422 95.7255H138.334L136.878 90.5255L135.422 95.7255ZM146.199 100.333C145.591 100.333 145.074 100.243 144.647 100.061C144.231 99.8695 143.916 99.5708 143.703 99.1655C143.5 98.7495 143.399 98.2055 143.399 97.5335V88.4935H145.767V97.1495C145.767 97.4055 145.81 97.6135 145.895 97.7735C145.991 97.9335 146.119 98.0455 146.279 98.1095C146.439 98.1628 146.62 98.1895 146.823 98.1895H150.567V100.333H146.199Z" fill="#0052CC"/>
</svg>
