<svg width="78" height="74" viewBox="0 0 78 74" fill="none" xmlns="http://www.w3.org/2000/svg">
<path d="M34.6997 50.7675L30.9215 54.5765C30.6006 54.9013 30.4202 55.3409 30.4196 55.7993V57.0643C30.4196 57.5228 30.239 57.9625 29.9174 58.2867C29.5958 58.6109 29.1596 58.7931 28.7048 58.7931H27.4501C26.9953 58.7936 26.5593 58.9755 26.2371 59.299L22.4589 63.108C22.219 63.3498 22.0555 63.6579 21.9893 63.9934C21.9231 64.3288 21.957 64.6765 22.0869 64.9925C22.2167 65.3085 22.4366 65.5786 22.7188 65.7685C23.0009 65.9585 23.3326 66.0598 23.6719 66.0596H28.7048C29.1602 66.0615 29.5964 66.2452 29.9178 66.5705C30.2392 66.8958 30.4196 67.3363 30.4196 67.7955V71.6044C30.4196 72.0629 30.6003 72.5027 30.9219 72.8269C31.2435 73.1511 31.6797 73.3332 32.1345 73.3332H35.9127C36.3681 73.3332 36.805 73.1513 37.1277 72.8273C37.4504 72.5033 37.6326 72.0636 37.6345 71.6044V52.0044C37.6354 51.6612 37.5355 51.3254 37.3472 51.0395C37.1589 50.7536 36.8908 50.5303 36.5768 50.398C36.2627 50.2656 35.9168 50.2301 35.5827 50.2959C35.2486 50.3616 34.9413 50.5257 34.6997 50.7675Z" fill="#0052CC"/>
<path d="M33.6331 44.1052H27.5964C27.1417 44.1058 26.7056 44.2877 26.3835 44.6112L0.828305 70.3815C0.588337 70.6233 0.424902 70.9314 0.358675 71.2669C0.292448 71.6023 0.326405 71.9501 0.456256 72.266C0.586107 72.582 0.806014 72.8521 1.08815 73.042C1.37028 73.232 1.70197 73.3333 2.04124 73.3332H8.078C8.53272 73.3326 8.96875 73.1507 9.29092 72.8272L34.8461 47.085C35.0959 46.8448 35.268 46.5343 35.3399 46.194C35.4118 45.8536 35.3802 45.4994 35.2491 45.1774C35.1181 44.8555 34.8937 44.581 34.6054 44.3897C34.3171 44.1984 33.9782 44.0992 33.6331 44.1052Z" fill="#0052CC"/>
<path d="M46.7942 44.1055H43.009C42.0619 44.1055 41.2942 44.8795 41.2942 45.8343V71.6046C41.2942 72.5594 42.0619 73.3334 43.009 73.3334H46.7942C47.7413 73.3334 48.509 72.5594 48.509 71.6046V45.8343C48.509 44.8795 47.7413 44.1055 46.7942 44.1055Z" fill="#0052CC"/>
<path d="M70.4185 0C68.4902 0 66.6409 0.772247 65.2774 2.14686C63.9139 3.52146 63.1479 5.38583 63.1479 7.32982C63.1473 8.373 63.3709 9.40392 63.8031 10.3517L50.3912 21.9473C48.8266 20.7706 46.9269 20.1347 44.9748 20.1342H44.8494L43.6852 15.3132C44.9373 14.5067 45.8647 13.2784 46.3025 11.847C46.7403 10.4156 46.6599 8.87402 46.0758 7.49675C45.4916 6.11949 44.4416 4.99593 43.1126 4.32614C41.7836 3.65635 40.262 3.48379 38.8186 3.8392C37.3753 4.19461 36.1039 5.05491 35.2308 6.26692C34.3578 7.47894 33.9397 8.96399 34.0511 10.4577C34.1625 11.9513 34.7961 13.3567 35.8391 14.4235C36.8821 15.4902 38.2669 16.1492 39.7467 16.283L40.9039 21.0829C39.4882 21.7963 38.2825 22.871 37.4068 24.2002C36.5311 25.5293 36.016 27.0665 35.9127 28.6587L27.9172 29.9026C27.177 28.3009 25.8884 27.0223 24.288 26.3017C22.6877 25.5812 20.8832 25.4671 19.2061 25.9804C17.529 26.4937 16.092 27.6 15.1591 29.0959C14.2263 30.5918 13.8603 32.3769 14.1284 34.1231C14.3965 35.8693 15.2806 37.4592 16.6184 38.6008C17.9562 39.7424 19.6577 40.359 21.4103 40.3371C23.1628 40.3153 24.8487 39.6565 26.1581 38.4819C27.4675 37.3073 28.3124 35.6958 28.5376 33.9435L36.5262 32.6996C37.0133 33.9487 37.7674 35.0742 38.735 35.9961C39.7025 36.9181 40.8596 37.6138 42.1241 38.0338C43.3885 38.4538 44.7292 38.5878 46.0509 38.4262C47.3725 38.2646 48.6426 37.8114 49.7708 37.0989L56.7417 44.1968C55.899 45.7397 55.6367 47.5373 56.003 49.2595C56.3694 50.9817 57.3397 52.5128 58.7359 53.5716C60.132 54.6305 61.8602 55.146 63.6031 55.0235C65.346 54.901 66.9865 54.1487 68.2234 52.9048C69.4602 51.6609 70.2105 50.0088 70.3362 48.252C70.4619 46.4953 69.9548 44.7517 68.9079 43.3417C67.861 41.9316 66.3446 40.9496 64.6372 40.5761C62.9298 40.2026 61.1461 40.4626 59.6136 41.3084L52.6428 34.2175C53.494 32.8611 53.9756 31.3024 54.0392 29.6986C54.1029 28.0948 53.7463 26.5023 53.0053 25.0816L66.4451 13.4579C67.3921 14.0801 68.4701 14.4708 69.5933 14.5991C70.7165 14.7273 71.8539 14.5895 72.9149 14.1966C73.976 13.8038 74.9314 13.1666 75.7053 12.336C76.4792 11.5053 77.05 10.5041 77.3725 9.41184C77.695 8.31963 77.7601 7.16661 77.5628 6.04453C77.3655 4.92245 76.9112 3.86229 76.2359 2.94839C75.5607 2.03449 74.6832 1.29208 73.6732 0.780227C72.6633 0.268377 71.5488 0.00121574 70.4185 0V0Z" fill="#0052CC"/>
</svg>
